<?xml version="1.0" standalone="no"?>
<!DOCTYPE svg PUBLIC "-//W3C//DTD SVG 20010904//EN"
 "http://www.w3.org/TR/2001/REC-SVG-20010904/DTD/svg10.dtd">
<svg version="1.0" xmlns="http://www.w3.org/2000/svg"
 width="96.000000pt" height="72.000000pt" viewBox="0 0 96.000000 72.000000"
 preserveAspectRatio="xMidYMid meet">

<g transform="translate(0.000000,72.000000) scale(0.100000,-0.100000)"
fill="#000000" stroke="none">
<path d="M439 597 c-50 -19 -88 -50 -122 -99 -35 -53 -35 -68 2 -68 22 0 34 9
55 40 52 78 152 102 232 55 75 -44 107 3 34 51 -48 32 -145 42 -201 21z"/>
<path d="M652 408 c-1 -9 -12 -18 -24 -20 -33 -4 -32 -52 0 -56 26 -4 35 13
29 60 -2 18 -5 25 -5 16z m-7 -48 c0 -8 -8 -16 -17 -18 -13 -2 -18 3 -18 18 0
15 5 20 18 18 9 -2 17 -10 17 -18z"/>
<path d="M478 397 c-7 -19 6 -60 20 -63 7 -1 8 0 2 3 -12 6 -13 40 -1 45 5 2
3 8 -4 15 -10 9 -14 9 -17 0z"/>
<path d="M84 375 c-10 -24 4 -45 28 -44 l23 0 -22 9 c-13 5 -23 14 -23 20 0 6
10 15 23 20 l22 9 -23 0 c-12 1 -25 -6 -28 -14z"/>
<path d="M154 376 c-10 -26 4 -48 28 -44 33 4 33 52 0 56 -13 2 -25 -3 -28
-12z m42 -7 c10 -17 -13 -36 -27 -22 -12 12 -4 33 11 33 5 0 12 -5 16 -11z"/>
<path d="M231 358 c2 -31 2 -31 6 -5 5 33 25 31 34 -4 7 -24 7 -24 8 4 1 30
21 38 21 8 0 -11 5 -23 11 -26 7 -5 9 3 7 21 -3 26 -7 29 -45 32 -43 3 -43 3
-42 -30z"/>
<path d="M347 383 c-4 -3 -7 -22 -6 -42 0 -20 3 -30 6 -23 2 6 13 12 23 12 20
0 32 23 24 45 -6 15 -35 20 -47 8z m38 -23 c0 -8 -8 -16 -17 -18 -13 -2 -18 3
-18 18 0 15 5 20 18 18 9 -2 17 -10 17 -18z"/>
<path d="M415 381 c-3 -6 5 -15 17 -22 22 -12 22 -12 3 -20 -19 -7 -19 -8 3
-8 26 -1 30 24 5 34 -17 7 -16 8 2 15 19 8 19 9 -2 9 -12 1 -24 -3 -28 -8z"/>
<path d="M524 376 c-10 -26 4 -46 31 -46 23 0 26 4 23 28 -3 31 -44 45 -54 18z
m46 -16 c0 -11 -6 -20 -14 -20 -18 0 -29 16 -21 30 11 18 35 11 35 -10z"/>
<path d="M682 360 c0 -19 2 -27 5 -17 2 9 2 25 0 35 -3 9 -5 1 -5 -18z"/>
<path d="M711 378 c-2 -31 11 -48 35 -48 21 0 24 4 23 33 -2 30 -2 30 -6 5 -2
-16 -10 -28 -18 -28 -7 0 -18 12 -23 28 -6 15 -11 20 -11 10z"/>
<path d="M791 358 c1 -29 2 -30 8 -9 9 35 29 37 34 4 l4 -28 2 28 c1 34 28 36
34 2 4 -23 4 -23 3 2 -1 25 -5 28 -43 31 -43 3 -43 3 -42 -30z"/>
<path d="M290 277 c0 -23 53 -95 90 -122 40 -30 89 -45 146 -45 54 0 148 47
152 76 5 33 -23 36 -75 9 -84 -45 -178 -23 -229 55 -21 31 -33 40 -55 40 -18
0 -29 -5 -29 -13z"/>
</g>
</svg>
